<svg version="1.2" xmlns="http://www.w3.org/2000/svg" viewBox="0 0 375 96" width="375" height="96"><style>.a{fill:#fff}</style><path class="a" d="m34.6 0.1h-31c-0.6 0-1.2 0.6-1.2 1.1v16.5h32.2c2.2 0 14.2 0.6 14.2 11.2 0 10.5-11.8 10.8-14.2 10.8h-32.2v55.3c0 0.4 0.6 1 1.2 1h15.6c0.8 0 1.2-0.6 1.2-1v-37.6h14.2c2.3 0 32.4-0.3 32.4-28.5 0-28.2-28.5-28.8-32.4-28.8z"/><path class="a" d="m122.5 79.6h-9.6v-79.5h-18.3v79.5h-9.8c-0.8 0-1.4 0.5-1.4 1.1v14.3c0 0.4 0.6 1 1.4 1h37.7c0.9 0 1.4-0.6 1.4-1v-14.3c0-0.6-0.5-1.1-1.4-1.1z"/><path class="a" d="m226.5 0.1h-19.2c-0.2 0-0.9 0.1-1.1 0.4l-22.6 32-10.1-14.1h-22.3c7.1 10 14 20 21.1 29.7l-32.9 46.1c-0.7 0.9-0.2 1.8 1 1.8h19.2c0.2 0 0.9-0.1 1.1-0.3l22.9-32 9.9 14h22.3c-7-10-14.1-19.9-21.2-29.6l33.1-46.2c0.6-0.8 0.1-1.8-1.2-1.8z"/><path class="a" d="m291.1 78.2h-27.2v-21.6h37.7c0.7 0 1.3-0.6 1.3-1.1v-15.2c0-0.6-0.6-1.1-1.3-1.1h-37.7v-21.7h27.2v-17.4h-44.2c-0.7 0-1.3 0.6-1.3 1.1v93.8c0 0.4 0.6 1 1.3 1h44.2z"/><path class="a" d="m370.8 78.2h-51.9v16.8c0 0.4 0.6 1 1.4 1h50.5c0.8 0 1.3-0.6 1.3-1v-15.6c0-0.6-0.5-1.2-1.3-1.2zm-33.5-18.4v-58.6c0-0.5-0.5-1.1-1.2-1.1h-15.8c-0.8 0-1.4 0.6-1.4 1.1v58.6z"/></svg>